<mxfile host="app.diagrams.net" modified="2021-03-10T23:04:49.169Z" agent="5.0 (Windows NT 10.0; Win64; x64) AppleWebKit/537.36 (KHTML, like Gecko) Chrome/89.0.4389.82 Safari/537.36" etag="AA_2wkNF_dIVPAjVsKk4" version="14.4.4" type="github">
  <diagram id="JjFT54wV5f-kowgHbEp1" name="Page-1">
    <mxGraphModel dx="1278" dy="548" grid="1" gridSize="10" guides="1" tooltips="1" connect="1" arrows="1" fold="1" page="1" pageScale="1" pageWidth="2000" pageHeight="2000" math="0" shadow="0">
      <root>
        <mxCell id="0" />
        <mxCell id="1" parent="0" />
        <mxCell id="fREHSKbraZBsuospEQpC-1" value="&lt;b&gt;&lt;font style=&quot;font-size: 17px&quot;&gt;Buenas prÃ¡cticas&lt;/font&gt;&lt;/b&gt;" style="rounded=0;whiteSpace=wrap;html=1;fillColor=#d5e8d4;strokeColor=#82b366;" vertex="1" parent="1">
          <mxGeometry x="50" y="40" width="780" height="60" as="geometry" />
        </mxCell>
      </root>
    </mxGraphModel>
  </diagram>
</mxfile>
